<svg width="800" height="500" viewBox="0 0 800 500" fill="none" xmlns="http://www.w3.org/2000/svg">
<rect width="800" height="500" fill="#0B2040"></rect>
<path d="M544.798 126.705L529.364 146.288L513.929 126.705L518.425 121H540.302L544.798 126.705Z" fill="white"></path>
<path d="M459.489 207.385C459.489 200.405 460.775 192.997 463.347 185.16C466.04 177.323 470.204 170.16 475.836 163.67C481.469 157.058 488.632 151.609 497.326 147.323C506.02 143.038 516.428 140.895 528.551 140.895C540.796 140.895 551.388 143.099 560.327 147.507C569.388 151.793 576.857 157.242 582.735 163.854C588.612 170.466 592.959 177.691 595.776 185.528C598.592 193.242 600 200.528 600 207.385C600 211.915 599.327 216.691 597.98 221.711C596.755 226.732 594.857 231.752 592.286 236.773C589.837 241.671 586.653 246.385 582.735 250.916C578.816 255.324 574.163 259.242 568.776 262.671C563.51 266.099 557.51 268.854 550.776 270.936C544.163 272.895 536.755 273.875 528.551 273.875C516.428 273.875 506.02 271.732 497.326 267.446C488.632 263.038 481.469 257.528 475.836 250.916C470.204 244.303 466.04 237.14 463.347 229.426C460.775 221.589 459.489 214.242 459.489 207.385ZM477.489 207.385C477.489 215.956 478.775 223.854 481.347 231.079C484.04 238.181 487.653 244.303 492.183 249.446C496.836 254.589 502.285 258.63 508.53 261.569C514.775 264.385 521.571 265.793 528.918 265.793C536.143 265.793 542.939 264.385 549.306 261.569C555.796 258.63 561.429 254.589 566.204 249.446C571.102 244.303 574.959 238.181 577.776 231.079C580.592 223.854 582 215.956 582 207.385C582 198.813 580.592 190.977 577.776 183.874C574.959 176.65 571.102 170.466 566.204 165.323C561.429 160.18 555.796 156.201 549.306 153.384C542.939 150.446 536.143 148.976 528.918 148.976C521.571 148.976 514.775 150.446 508.53 153.384C502.285 156.201 496.836 160.18 492.183 165.323C487.653 170.466 484.04 176.65 481.347 183.874C478.775 190.977 477.489 198.813 477.489 207.385Z" fill="white"></path>
<path d="M361.855 143.099H444.876V153.201H378.569V199.303H435.508V207.752H378.569V261.569H444.876V271.671H361.855V143.099Z" fill="white"></path>
<path d="M309.396 143.099H317.845V273.875H316.926L214.987 173.405H214.252V271.671H205.803V140.895H206.722L308.661 241.364H309.396V143.099Z" fill="white"></path>
<path d="M220.799 321.62C226.587 321.62 231.39 323.65 235.208 327.709C239.066 331.768 240.995 336.772 240.995 342.721C240.995 348.629 239.066 353.633 235.208 357.732C231.39 361.792 226.587 363.821 220.799 363.821H204.22V321.62H220.799ZM220.799 357.19C224.778 357.19 228.014 355.823 230.505 353.09C233.037 350.357 234.304 346.901 234.304 342.721C234.304 338.501 233.037 335.044 230.505 332.351C228.014 329.618 224.778 328.252 220.799 328.252H211.153V357.19H220.799ZM266.608 321.62H273.541V363.821H266.608V321.62ZM328.757 363.821L325.803 355.321H307.838L304.884 363.821H297.348L312.661 321.62H320.98L336.233 363.821H328.757ZM310.129 348.81H323.512L316.82 329.759L310.129 348.81ZM400.456 321.62V363.821H393.523V333.738L380.681 354.959H379.837L366.996 333.678V363.821H360.063V321.62H367.539L380.259 342.721L393.04 321.62H400.456ZM463.43 358.275C459.21 362.495 454.045 364.605 447.936 364.605C441.827 364.605 436.642 362.495 432.382 358.275C428.162 354.015 426.052 348.83 426.052 342.721C426.052 336.612 428.162 331.447 432.382 327.227C436.642 322.967 441.827 320.836 447.936 320.836C454.045 320.836 459.21 322.967 463.43 327.227C467.69 331.447 469.82 336.612 469.82 342.721C469.82 348.83 467.69 354.015 463.43 358.275ZM437.265 353.572C440.159 356.426 443.716 357.853 447.936 357.853C452.156 357.853 455.693 356.426 458.547 353.572C461.441 350.679 462.887 347.061 462.887 342.721C462.887 338.38 461.441 334.783 458.547 331.929C455.693 329.035 452.156 327.589 447.936 327.589C443.716 327.589 440.159 329.035 437.265 331.929C434.412 334.783 432.985 338.38 432.985 342.721C432.985 347.061 434.412 350.679 437.265 353.572ZM520.757 321.62H527.69V363.821H522.264L502.37 335.185V363.821H495.437V321.62H500.862L520.757 350.257V321.62ZM571.99 321.62C577.777 321.62 582.58 323.65 586.398 327.709C590.257 331.768 592.186 336.772 592.186 342.721C592.186 348.629 590.257 353.633 586.398 357.732C582.58 361.792 577.777 363.821 571.99 363.821H555.411V321.62H571.99ZM571.99 357.19C575.969 357.19 579.204 355.823 581.696 353.09C584.228 350.357 585.494 346.901 585.494 342.721C585.494 338.501 584.228 335.044 581.696 332.351C579.204 329.618 575.969 328.252 571.99 328.252H562.344V357.19H571.99Z" fill="white"></path>
</svg>